<mxfile host="app.diagrams.net" modified="2022-04-07T07:03:48.085Z" agent="5.0 (Macintosh; Intel Mac OS X 10_15_7) AppleWebKit/537.36 (KHTML, like Gecko) Chrome/99.0.4844.74 Safari/537.36" etag="5irRZ2Wx0qctN64faCb4" version="17.4.0" type="github">
  <diagram id="qr0Q6VfaH-5duNJ7Y23n" name="Page-1">
    <mxGraphModel dx="2013" dy="591" grid="1" gridSize="10" guides="1" tooltips="1" connect="1" arrows="1" fold="1" page="1" pageScale="1" pageWidth="827" pageHeight="1169" math="0" shadow="0">
      <root>
        <mxCell id="0" />
        <mxCell id="1" parent="0" />
        <mxCell id="GMTRIXXmRjoj2o2Xyc21-1" value="1.fill form" style="shape=umlActor;verticalLabelPosition=bottom;verticalAlign=top;html=1;outlineConnect=0;" vertex="1" parent="1">
          <mxGeometry x="160" y="60" width="20" height="40" as="geometry" />
        </mxCell>
        <mxCell id="GMTRIXXmRjoj2o2Xyc21-4" value="" style="shape=curlyBracket;whiteSpace=wrap;html=1;rounded=1;size=0.5;" vertex="1" parent="1">
          <mxGeometry x="81" y="80" width="29" height="250" as="geometry" />
        </mxCell>
        <mxCell id="GMTRIXXmRjoj2o2Xyc21-5" value="&lt;font style=&quot;font-size: 24px&quot;&gt;Initial data creation&lt;/font&gt;" style="text;html=1;align=center;verticalAlign=middle;resizable=0;points=[];autosize=1;strokeColor=none;fillColor=none;" vertex="1" parent="1">
          <mxGeometry x="-190" y="183" width="220" height="20" as="geometry" />
        </mxCell>
        <mxCell id="GMTRIXXmRjoj2o2Xyc21-9" value="&lt;ol&gt;&lt;li&gt;&lt;font style=&quot;font-size: 14px&quot;&gt;Fill in the landing page form&lt;br&gt;&lt;/font&gt;&lt;/li&gt;&lt;li&gt;&lt;font size=&quot;3&quot;&gt;App User Registration&lt;br&gt;&lt;/font&gt;&lt;/li&gt;&lt;li&gt;&lt;font size=&quot;3&quot;&gt;BD fills in the form manually on the CRM platform&lt;/font&gt;&lt;/li&gt;&lt;/ol&gt;" style="text;strokeColor=none;fillColor=none;html=1;whiteSpace=wrap;verticalAlign=middle;overflow=hidden;fontSize=9;" vertex="1" parent="1">
          <mxGeometry x="-240" y="70" width="330" height="90" as="geometry" />
        </mxCell>
        <mxCell id="GMTRIXXmRjoj2o2Xyc21-11" value="2.app registration" style="shape=umlActor;verticalLabelPosition=bottom;verticalAlign=top;html=1;outlineConnect=0;" vertex="1" parent="1">
          <mxGeometry x="300" y="60" width="20" height="40" as="geometry" />
        </mxCell>
        <mxCell id="GMTRIXXmRjoj2o2Xyc21-12" value="3.BD fill from in crm" style="shape=umlActor;verticalLabelPosition=bottom;verticalAlign=top;html=1;outlineConnect=0;" vertex="1" parent="1">
          <mxGeometry x="440" y="60" width="20" height="40" as="geometry" />
        </mxCell>
        <mxCell id="GMTRIXXmRjoj2o2Xyc21-15" value="" style="shape=singleArrow;direction=south;whiteSpace=wrap;html=1;fontSize=14;arrowWidth=0.2;arrowSize=0.31;" vertex="1" parent="1">
          <mxGeometry x="290" y="130" width="50" height="85" as="geometry" />
        </mxCell>
        <mxCell id="GMTRIXXmRjoj2o2Xyc21-16" value="create contact in crm(mobile)" style="text;html=1;align=center;verticalAlign=middle;resizable=0;points=[];autosize=1;strokeColor=none;fillColor=none;fontSize=14;" vertex="1" parent="1">
          <mxGeometry x="230" y="220" width="200" height="20" as="geometry" />
        </mxCell>
        <mxCell id="GMTRIXXmRjoj2o2Xyc21-17" value="&lt;table border=&quot;1&quot; width=&quot;100%&quot; cellpadding=&quot;4&quot; style=&quot;width: 100% ; height: 100% ; border-collapse: collapse&quot;&gt;&lt;tbody&gt;&lt;tr style=&quot;background-color: #a7c942 ; color: #ffffff ; border: 1px solid #98bf21&quot;&gt;&lt;th align=&quot;left&quot;&gt;id&lt;/th&gt;&lt;th align=&quot;left&quot;&gt;name&lt;/th&gt;&lt;th align=&quot;left&quot;&gt;mobile&lt;/th&gt;&lt;/tr&gt;&lt;tr style=&quot;border: 1px solid #98bf21&quot;&gt;&lt;td&gt;x111&lt;/td&gt;&lt;td&gt;david&lt;/td&gt;&lt;td&gt;+91232234&lt;/td&gt;&lt;/tr&gt;&lt;tr style=&quot;background-color: #eaf2d3 ; border: 1px solid #98bf21&quot;&gt;&lt;td&gt;x222&lt;/td&gt;&lt;td&gt;James&lt;/td&gt;&lt;td&gt;+91293020&lt;/td&gt;&lt;/tr&gt;&lt;tr style=&quot;border: 1px solid #98bf21&quot;&gt;&lt;td&gt;Value 7&lt;/td&gt;&lt;td&gt;Value 8&lt;/td&gt;&lt;td&gt;Value 9&lt;/td&gt;&lt;/tr&gt;&lt;tr style=&quot;background-color: #eaf2d3 ; border: 1px solid #98bf21&quot;&gt;&lt;td&gt;Value 10&lt;/td&gt;&lt;td&gt;Value 11&lt;/td&gt;&lt;td&gt;Value 12&lt;/td&gt;&lt;/tr&gt;&lt;/tbody&gt;&lt;/table&gt;" style="text;html=1;strokeColor=#c0c0c0;fillColor=#ffffff;overflow=fill;rounded=0;fontSize=14;" vertex="1" parent="1">
          <mxGeometry x="230" y="260" width="250" height="80" as="geometry" />
        </mxCell>
        <mxCell id="GMTRIXXmRjoj2o2Xyc21-18" value="Pool" style="swimlane;childLayout=stackLayout;resizeParent=1;resizeParentMax=0;horizontal=1;startSize=20;horizontalStack=0;fontSize=14;" vertex="1" parent="1">
          <mxGeometry x="115" y="370" width="480" height="380" as="geometry" />
        </mxCell>
        <mxCell id="GMTRIXXmRjoj2o2Xyc21-19" value="Lane 1" style="swimlane;startSize=20;horizontal=0;fontSize=14;" vertex="1" parent="GMTRIXXmRjoj2o2Xyc21-18">
          <mxGeometry y="20" width="480" height="120" as="geometry" />
        </mxCell>
        <mxCell id="GMTRIXXmRjoj2o2Xyc21-20" value="Lane 2" style="swimlane;startSize=20;horizontal=0;fontSize=14;" vertex="1" parent="GMTRIXXmRjoj2o2Xyc21-18">
          <mxGeometry y="140" width="480" height="120" as="geometry" />
        </mxCell>
        <mxCell id="GMTRIXXmRjoj2o2Xyc21-21" value="Lane 3" style="swimlane;startSize=20;horizontal=0;fontSize=14;" vertex="1" parent="GMTRIXXmRjoj2o2Xyc21-18">
          <mxGeometry y="260" width="480" height="120" as="geometry" />
        </mxCell>
      </root>
    </mxGraphModel>
  </diagram>
</mxfile>
